<svg aria-hidden="true" style="position: absolute; width: 0; height: 0; overflow: hidden;" version="1.1" xmlns="http://www.w3.org/2000/svg" xmlns:xlink="http://www.w3.org/1999/xlink">
<defs>
<symbol id="icon-graduation-cap" viewBox="0 0 36 28">
<path d="M27.719 13.062l0.281 4.937c0.125 2.203-4.484 4-10 4s-10.125-1.797-10-4l0.281-4.937 8.969 2.828c0.25 0.078 0.5 0.109 0.75 0.109s0.5-0.031 0.75-0.109zM36 8c0 0.219-0.141 0.406-0.344 0.484l-17.5 5.5c-0.063 0.016-0.109 0.016-0.156 0.016s-0.094 0-0.156-0.016l-10.187-3.219c-0.891 0.703-1.516 2.422-1.641 4.531 0.594 0.344 0.984 0.969 0.984 1.703 0 0.703-0.359 1.313-0.906 1.672l0.906 6.766c0.016 0.141-0.031 0.281-0.125 0.391s-0.234 0.172-0.375 0.172h-3c-0.141 0-0.281-0.063-0.375-0.172s-0.141-0.25-0.125-0.391l0.906-6.766c-0.547-0.359-0.906-0.969-0.906-1.672 0-0.75 0.422-1.391 1.016-1.734 0.094-1.828 0.562-3.797 1.531-5.156l-5.203-1.625c-0.203-0.078-0.344-0.266-0.344-0.484s0.141-0.406 0.344-0.484l17.5-5.5c0.063-0.016 0.109-0.016 0.156-0.016s0.094 0 0.156 0.016l17.5 5.5c0.203 0.078 0.344 0.266 0.344 0.484z"></path>
</symbol>
<symbol id="icon-info" viewBox="0 0 32 32">
<path d="M14 9.5c0-0.825 0.675-1.5 1.5-1.5h1c0.825 0 1.5 0.675 1.5 1.5v1c0 0.825-0.675 1.5-1.5 1.5h-1c-0.825 0-1.5-0.675-1.5-1.5v-1z"></path>
<path d="M20 24h-8v-2h2v-6h-2v-2h6v8h2z"></path>
<path d="M16 0c-8.837 0-16 7.163-16 16s7.163 16 16 16 16-7.163 16-16-7.163-16-16-16zM16 29c-7.18 0-13-5.82-13-13s5.82-13 13-13 13 5.82 13 13-5.82 13-13 13z"></path>
</symbol>
<symbol id="icon-pencil" viewBox="0 0 32 32">
<path d="M27 0c2.761 0 5 2.239 5 5 0 1.126-0.372 2.164-1 3l-2 2-7-7 2-2c0.836-0.628 1.874-1 3-1zM2 23l-2 9 9-2 18.5-18.5-7-7-18.5 18.5zM22.362 11.362l-14 14-1.724-1.724 14-14 1.724 1.724z"></path>
</symbol>
<symbol id="icon-cross" viewBox="0 0 32 32">
<path d="M31.708 25.708c-0-0-0-0-0-0l-9.708-9.708 9.708-9.708c0-0 0-0 0-0 0.105-0.105 0.18-0.227 0.229-0.357 0.133-0.356 0.057-0.771-0.229-1.057l-4.586-4.586c-0.286-0.286-0.702-0.361-1.057-0.229-0.13 0.048-0.252 0.124-0.357 0.228 0 0-0 0-0 0l-9.708 9.708-9.708-9.708c-0-0-0-0-0-0-0.105-0.104-0.227-0.18-0.357-0.228-0.356-0.133-0.771-0.057-1.057 0.229l-4.586 4.586c-0.286 0.286-0.361 0.702-0.229 1.057 0.049 0.13 0.124 0.252 0.229 0.357 0 0 0 0 0 0l9.708 9.708-9.708 9.708c-0 0-0 0-0 0-0.104 0.105-0.18 0.227-0.229 0.357-0.133 0.355-0.057 0.771 0.229 1.057l4.586 4.586c0.286 0.286 0.702 0.361 1.057 0.229 0.13-0.049 0.252-0.124 0.357-0.229 0-0 0-0 0-0l9.708-9.708 9.708 9.708c0 0 0 0 0 0 0.105 0.105 0.227 0.18 0.357 0.229 0.356 0.133 0.771 0.057 1.057-0.229l4.586-4.586c0.286-0.286 0.362-0.702 0.229-1.057-0.049-0.13-0.124-0.252-0.229-0.357z"></path>
</symbol>
<symbol id="icon-checkmark" viewBox="0 0 32 32">
<path d="M27 4l-15 15-7-7-5 5 12 12 20-20z"></path>
</symbol>
<symbol id="icon-birthday-cake" viewBox="0 0 28 28">
<path d="M28 22v6h-28v-6c1.531 0 2.344-0.688 2.984-1.234 0.531-0.469 0.891-0.766 1.687-0.766s1.141 0.297 1.687 0.766c0.641 0.547 1.437 1.234 2.984 1.234 1.531 0 2.328-0.688 2.984-1.234 0.531-0.469 0.875-0.766 1.672-0.766s1.156 0.297 1.687 0.766c0.641 0.547 1.453 1.234 2.984 1.234s2.344-0.688 2.984-1.234c0.531-0.469 0.891-0.766 1.687-0.766 0.781 0 1.141 0.297 1.672 0.766 0.641 0.547 1.453 1.234 2.984 1.234zM28 17v3c-0.797 0-1.141-0.297-1.687-0.766-0.641-0.547-1.437-1.234-2.969-1.234-1.547 0-2.344 0.688-2.984 1.234-0.547 0.469-0.891 0.766-1.687 0.766s-1.156-0.297-1.687-0.766c-0.641-0.547-1.437-1.234-2.984-1.234-1.531 0-2.328 0.688-2.984 1.234-0.531 0.469-0.875 0.766-1.672 0.766s-1.156-0.297-1.687-0.766c-0.641-0.547-1.453-1.234-2.984-1.234-1.547 0-2.344 0.688-2.984 1.234-0.531 0.469-0.891 0.766-1.687 0.766v-3c0-1.656 1.344-3 3-3h1v-7h4v7h4v-7h4v7h4v-7h4v7h1c1.656 0 3 1.344 3 3zM8 3.5c0 1.656-0.891 2.5-2 2.5s-2-0.891-2-2c0-1.937 2-1.437 2-4 0.75 0 2 1.844 2 3.5zM16 3.5c0 1.656-0.891 2.5-2 2.5s-2-0.891-2-2c0-1.937 2-1.437 2-4 0.75 0 2 1.844 2 3.5zM24 3.5c0 1.656-0.891 2.5-2 2.5s-2-0.891-2-2c0-1.937 2-1.437 2-4 0.75 0 2 1.844 2 3.5z"></path>
</symbol>
<symbol id="icon-user" viewBox="0 0 32 32">
<path d="M0 32v-3c0-4.484 5.649-6.179 13.099-6.862-1.636-1.014-2.92-3.864-3.589-6.14-0.003 0-0.006 0.002-0.010 0.002-0.068 0-1.5-1.791-1.5-4 0-1.938-0.138-3.554 1.007-3.92-0.001-0.027-0.007-0.053-0.007-0.080 0-2.457 1.271-4.61 3.187-5.859 0.495-1.235 2.004-2.141 3.813-2.141s3.318 0.906 3.813 2.141c1.916 1.249 3.187 3.402 3.187 5.859 0 0.027-0.006 0.053-0.007 0.080 1.145 0.366 1.007 1.982 1.007 3.92 0 2.209-1.588 4-1.5 4-0.004 0-0.007-0.002-0.010-0.002-0.669 2.275-1.953 5.126-3.589 6.14 7.45 0.683 13.099 2.315 13.099 6.862v3h-32z"></path>
</symbol>
<symbol id="icon-phone" viewBox="0 0 32 32">
<path d="M22 20c-2 2-2 4-4 4s-4-2-6-4-4-4-4-6 2-2 4-4-4-8-6-8-6 6-6 6c0 4 4.109 12.109 8 16s12 8 16 8c0 0 6-4 6-6s-6-8-8-6z"></path>
</symbol>
<symbol id="icon-envelop" viewBox="0 0 32 32">
<path d="M29 4h-26c-1.65 0-3 1.35-3 3v20c0 1.65 1.35 3 3 3h26c1.65 0 3-1.35 3-3v-20c0-1.65-1.35-3-3-3zM12.461 17.199l-8.461 6.59v-15.676l8.461 9.086zM5.512 8h20.976l-10.488 7.875-10.488-7.875zM12.79 17.553l3.21 3.447 3.21-3.447 6.58 8.447h-19.579l6.58-8.447zM19.539 17.199l8.461-9.086v15.676l-8.461-6.59z"></path>
</symbol>
<symbol id="icon-github" viewBox="0 0 32 32">
<path d="M16 0.395c-8.836 0-16 7.163-16 16 0 7.069 4.585 13.067 10.942 15.182 0.8 0.148 1.094-0.347 1.094-0.77 0-0.381-0.015-1.642-0.022-2.979-4.452 0.968-5.391-1.888-5.391-1.888-0.728-1.849-1.776-2.341-1.776-2.341-1.452-0.993 0.11-0.973 0.11-0.973 1.606 0.113 2.452 1.649 2.452 1.649 1.427 2.446 3.743 1.739 4.656 1.33 0.143-1.034 0.558-1.74 1.016-2.14-3.554-0.404-7.29-1.777-7.29-7.907 0-1.747 0.625-3.174 1.649-4.295-0.166-0.403-0.714-2.030 0.155-4.234 0 0 1.344-0.43 4.401 1.64 1.276-0.355 2.645-0.532 4.005-0.539 1.359 0.006 2.729 0.184 4.008 0.539 3.054-2.070 4.395-1.64 4.395-1.64 0.871 2.204 0.323 3.831 0.157 4.234 1.026 1.12 1.647 2.548 1.647 4.295 0 6.145-3.743 7.498-7.306 7.895 0.574 0.497 1.085 1.47 1.085 2.963 0 2.141-0.019 3.864-0.019 4.391 0 0.426 0.288 0.925 1.099 0.768 6.354-2.118 10.933-8.113 10.933-15.18 0-8.837-7.164-16-16-16z"></path>
</symbol>
<symbol id="icon-telegram" viewBox="0 0 32 32">
<path d="M31.88 5.053l-4.813 22.733c-0.333 1.613-1.307 2-2.667 1.253l-7.333-5.427-3.547 3.427c-0.4 0.4-0.733 0.747-1.467 0.747-0.96 0-0.8-0.36-1.12-1.267l-2.533-8.253-7.267-2.267c-1.573-0.467-1.587-1.547 0.347-2.333l28.347-10.933c1.293-0.573 2.533 0.32 2.053 2.32z"></path>
</symbol>
</defs>
</svg>
